<svg width="427" height="163" viewBox="0 0 427 163" fill="none" xmlns="http://www.w3.org/2000/svg">
<path d="M426.52 134.456C423.476 135.389 420.249 135.556 417.126 134.944C414.002 134.331 411.077 132.958 408.611 130.945C406.145 128.932 404.213 126.342 402.987 123.404C401.761 120.467 401.279 117.272 401.582 114.103C405.105 78.0237 385.389 86.513 383.649 87.2134C379.256 80.4007 368.135 74.2248 368.135 74.2248L347.4 64.5046C345.147 63.4482 343.128 61.9549 341.457 60.1114C338.84 57.2298 337.192 53.6002 336.746 49.7333C336.533 47.993 336.3 46.0192 336.024 43.8545L337.149 45.234L343.855 53.5322C342.179 26.2817 337.361 29.0619 332.374 18.6626C333.753 17.3892 345.808 23.6925 345.808 23.6925C338.528 11.2982 326.707 5.03734 316.838 2.08732L316.478 1.9812L315.756 1.76897H315.395H315.034C310.935 0.818925 306.758 0.236518 302.555 0.0286752C302.061 -0.0095584 301.564 -0.0095584 301.07 0.0286752C297.735 0.478032 294.642 2.01543 292.27 4.40231C289.899 6.78918 288.381 9.89207 287.954 13.2295C284.929 18.4004 281.303 23.1949 277.151 27.5127C276.049 28.7142 275.268 30.174 274.88 31.7573C274.01 35.3652 276.111 36.108 278 36.8721L279.868 36.2566L279.528 37.6573C279.528 37.6573 281.863 39.9282 283.773 38.294C284.493 37.673 285.128 36.9594 285.662 36.1717C285.837 35.922 286.065 35.713 286.328 35.5592C286.592 35.4054 286.886 35.3102 287.19 35.2803C288.158 35.1333 289.097 34.8323 289.97 34.3889C293.875 32.585 298.459 30.6961 302.576 29.2529C302.511 31.5216 302.169 33.7737 301.558 35.9595C300.549 40.2913 298.018 44.117 294.427 46.7408C294.427 46.7408 287.041 50.6247 286.277 54.1901C280.66 51.0325 275.271 47.4867 270.147 43.5786C269.54 43.062 268.823 42.692 268.05 42.4969C267.277 42.3019 266.47 42.2871 265.691 42.4537C264.297 42.7225 262.956 43.2171 261.722 43.9181C261.722 43.9181 259.239 42.3688 254.272 45.6372C252.897 45.7545 251.529 45.9529 250.176 46.2315C245.969 47.1323 242.213 49.4837 239.565 52.8743C238.461 54.2538 235.914 56.2488 230.269 58.8592C230.269 58.8592 230.885 63.6769 241.305 63.6769L241.921 61.5546C241.921 61.5546 243.788 61.5546 241.921 57.8193C241.921 57.8193 248.606 55.4848 247.821 53.0016C250.24 52.6407 252.592 51.9256 254.803 50.8793C254.803 50.8793 256.925 53.5322 251.853 68.6007C251.853 68.6007 253.105 74.6068 256.565 76.8565C259.24 78.5357 261.819 80.3638 264.29 82.332L265.372 83.2234C266.285 82.5531 267.056 81.7095 267.642 80.7408C268.229 79.7721 268.618 78.6974 268.789 77.5781C268.933 76.3111 268.659 75.0317 268.007 73.9356C267.356 72.8395 266.363 71.9869 265.181 71.5082L264.778 71.3597C264.473 71.2549 264.144 71.2372 263.829 71.3084C263.515 71.3796 263.226 71.537 262.995 71.7629C262.929 71.8365 262.84 71.8858 262.742 71.9031C262.645 71.9204 262.544 71.9046 262.456 71.8584C262.369 71.8121 262.299 71.738 262.258 71.6477C262.217 71.5573 262.208 71.456 262.231 71.3597C262.303 70.9338 262.287 70.4978 262.185 70.0782C262.083 69.6587 261.896 69.2643 261.637 68.919L258.475 64.738C258.475 64.738 262.974 53.5535 261.594 51.6858C261.849 51.9193 277.83 66.7755 281.99 76.241C282.155 76.6143 282.394 76.95 282.693 77.2273C282.993 77.5047 283.345 77.718 283.73 77.854H284.027C287.295 78.831 290.369 80.3677 293.111 82.3957C296.889 85.1547 301.982 88.89 306.821 92.604C312.424 96.6364 334.411 99.7562 338.826 99.4379C339.955 103.366 341.765 107.066 344.174 110.368C347.365 113.937 350.207 117.803 352.663 121.913L353.512 123.335C353.512 123.335 355.846 135.135 337.658 145.874L334.517 147.614C334.107 147.841 333.765 148.173 333.527 148.576C333.288 148.979 333.161 149.438 333.159 149.907L330.633 152.687C330.633 152.687 337.467 158.757 341.818 152.687L343.219 150.968C343.186 150.75 343.186 150.528 343.219 150.31C343.216 149.782 343.41 149.272 343.763 148.879C344.117 148.487 344.603 148.24 345.129 148.187C345.776 148.1 346.397 147.875 346.95 147.527C347.503 147.18 347.975 146.717 348.333 146.171C350.583 142.754 355.592 135.454 357.629 134.859C357.629 134.859 365.079 129.893 364.612 125.224L368.495 130.657C368.495 130.657 374.205 137.576 357.417 155.403L354.913 157.844C354.913 157.844 358.096 165.06 363.572 161.537C364.888 160.688 366.203 159.818 367.562 159.032L366.585 155.403C366.585 155.403 372.804 140.123 377.197 137.64C381.59 135.156 379.319 129.405 376.582 126.604C373.844 123.802 370.215 116.183 371.615 112.617C373.016 109.052 380.635 105.911 382.1 103.449C382.375 103.003 382.673 102.579 382.97 102.154C384.039 100.464 384.72 98.5578 384.965 96.5728C386.36 103.722 387.218 110.965 387.533 118.242C387.802 123.011 389.261 127.637 391.777 131.697C403.874 151.031 426.541 134.668 426.923 134.392L426.52 134.456ZM287.147 21.3579L289.736 17.6439C289.736 17.6439 291.986 21.6975 287.147 21.3579Z" fill="#FF0B00"/>
<path d="M0 77L19.3541 35.6021H22.4239L40.3455 77H34.4398L30.5222 67.9369H9.79401L5.55481 77H0ZM12.1036 63.0253H28.4172L24.675 54.3422C24.2073 53.2508 23.7492 52.1203 23.301 50.9509L22.1315 47.6472C21.3909 45.5033 20.9524 44.0415 20.8159 43.2618H20.4651C20.3092 44.0415 19.9583 45.1524 19.4126 46.5947C19.4126 46.5947 18.9156 47.8616 17.9216 50.3954C17.4733 51.4869 16.986 52.5978 16.4598 53.7283L12.1036 63.0253ZM46.4557 77V35.6021H52.0106V56.2133L73.4989 35.6021H80.4863L57.9747 57.0612L81.451 77H72.9142L52.0106 58.7276V77H46.4557ZM123.726 48.3489C123.726 54.4884 120.9 58.7276 115.248 61.0665L123.112 77H116.826L109.722 62.5867C107.793 62.8791 105.775 63.0253 103.67 63.0253H92.9115V77H87.5029V35.6021H104.489C110.609 35.6021 115.179 36.4401 118.201 38.1163C121.884 40.1434 123.726 43.5542 123.726 48.3489ZM92.9115 58.1136H104.401C108.767 58.1136 112.003 57.5094 114.107 56.301C116.7 54.8003 117.996 52.2665 117.996 48.6997C117.996 44.061 114.994 41.4297 108.991 40.806C107.257 40.6111 105.473 40.5137 103.641 40.5137H92.9115V58.1136ZM138.037 71.7522C136 69.9103 134.392 67.7127 133.213 65.1595C132.034 62.6062 131.444 60.0335 131.444 57.4412C131.444 54.849 131.712 52.6027 132.248 50.7024C132.784 48.802 133.549 47.0479 134.543 45.4399C135.537 43.8319 136.726 42.3848 138.11 41.0984C139.494 39.812 141.034 38.7205 142.729 37.824C146.277 35.9529 150.146 35.0173 154.336 35.0173C158.351 35.0173 162.093 35.9139 165.563 37.707C168.934 39.4612 171.624 41.8975 173.632 45.016C175.678 48.2709 176.701 51.8864 176.701 55.8625C176.701 62.1579 174.479 67.3717 170.036 71.5037C167.248 74.0959 163.886 75.8793 159.949 76.8538C157.981 77.3411 155.7 77.5847 153.108 77.5847C150.516 77.5847 147.865 77.0731 145.156 76.0498C142.447 75.0266 140.074 73.594 138.037 71.7522ZM142.042 44.4313C140.532 45.8541 139.343 47.54 138.476 49.4891C137.608 51.4381 137.175 53.5821 137.175 55.921C137.175 58.2598 137.623 60.4525 138.519 62.499C139.416 64.5455 140.644 66.3289 142.203 67.8492C145.536 71.1041 149.58 72.7316 154.336 72.7316C158.955 72.7316 162.873 71.2113 166.089 68.1708C169.344 65.0913 170.971 61.2809 170.971 56.7396C170.971 53.6601 170.192 50.8047 168.632 48.1735C167.171 45.6787 165.114 43.6711 162.464 42.1509C159.852 40.6306 157.182 39.8705 154.453 39.8705C151.724 39.8705 149.351 40.2749 147.334 41.0838C145.317 41.8926 143.553 43.0085 142.042 44.4313ZM186.086 77V35.6021H190.822L217.485 68.2877V35.6021H222.309V77H217.778L190.91 44.0804V77H186.086Z" fill="#1F1918"/>
<path d="M1.28186 143.214L3.89758 138.518C7.58337 140.896 11.3286 142.461 15.1333 143.214C16.4213 143.472 17.7292 143.601 19.0569 143.601C20.3846 143.601 21.7568 143.477 23.1737 143.229C24.5905 142.982 25.8439 142.57 26.9338 141.996C29.391 140.688 30.6196 138.677 30.6196 135.962C30.6196 133.168 28.5587 131.216 24.437 130.106C23.2282 129.789 21.9401 129.502 20.5728 129.244L16.3223 128.501C10.9125 127.57 7.13751 126.202 4.99738 124.399C3.01577 122.754 2.02496 120.535 2.02496 117.741C2.02496 113.936 3.84804 110.855 7.4942 108.497C10.744 106.376 14.5785 105.316 18.9974 105.316C23.2381 105.316 27.0527 106.01 30.4412 107.397C31.65 107.872 32.9083 108.467 34.2162 109.18L32.1949 114.025C29.3216 112.301 25.9331 111.182 22.0293 110.667C20.8007 110.488 19.6117 110.399 18.4624 110.399C15.8269 110.399 13.4985 110.904 11.4772 111.915C9.11912 113.104 7.94006 114.749 7.94006 116.849C7.94006 119.069 9.43618 120.693 12.4284 121.724C13.7759 122.199 15.3017 122.586 17.0059 122.883L22.2968 123.805C26.7554 124.637 29.8467 125.578 31.5707 126.628C33.2947 127.679 34.5679 128.853 35.3903 130.151C36.2127 131.449 36.6238 133.173 36.6238 135.323C36.6238 137.473 36.1185 139.4 35.1079 141.104C34.0973 142.808 32.7498 144.215 31.0654 145.325C27.776 147.524 23.5849 148.624 18.4921 148.624C13.7363 148.624 9.26774 147.594 5.08655 145.533C3.71924 144.859 2.45101 144.086 1.28186 143.214ZM46.1058 148V105.911H77.5242V110.904H51.6048V122.259H74.7004V127.253H51.6048V143.006H78.1187V148H46.1058ZM123.656 118.87C123.656 125.112 120.783 129.422 115.036 131.8L123.032 148H116.641L109.418 133.346C107.456 133.643 105.405 133.792 103.265 133.792H92.3268V148H86.8279V105.911H104.098C110.32 105.911 114.967 106.763 118.038 108.467C121.783 110.528 123.656 113.996 123.656 118.87ZM92.3268 128.798H104.008C108.447 128.798 111.737 128.184 113.877 126.955C116.512 125.429 117.83 122.853 117.83 119.227C117.83 114.511 114.778 111.836 108.675 111.202C106.911 111.003 105.098 110.904 103.236 110.904H92.3268V128.798ZM147.495 148.594L128.174 105.911H134.327L145.266 130.076C145.761 131.186 146.217 132.286 146.633 133.376C147.584 135.813 148.317 137.805 148.832 139.35H149.1C149.377 138.459 149.684 137.557 150.021 136.645L151.091 133.732C151.508 132.662 151.973 131.572 152.488 130.463L163.605 105.911H169.431L150.111 148.594H147.495ZM176.387 148V105.911H181.886V148H176.387ZM229.623 110.25L226.858 114.65C223.569 111.717 219.338 110.25 214.166 110.25C209.47 110.25 205.487 111.796 202.217 114.887C198.908 117.998 197.253 121.872 197.253 126.509C197.253 131.305 198.957 135.367 202.366 138.696C205.754 142.006 209.866 143.66 214.701 143.66C218.208 143.66 221.706 142.769 225.194 140.985C226.224 140.47 227.116 139.905 227.869 139.291L230.009 143.393C227.096 145.89 223.341 147.505 218.744 148.238C217.257 148.476 215.731 148.594 214.166 148.594C211.055 148.594 208.122 148.074 205.368 147.034C202.613 145.994 200.201 144.537 198.13 142.665C196.059 140.792 194.424 138.558 193.225 135.962C192.026 133.366 191.427 130.75 191.427 128.115C191.427 125.479 191.7 123.195 192.244 121.263C192.789 119.331 193.567 117.548 194.578 115.913C195.588 114.278 196.797 112.807 198.204 111.499C199.611 110.191 201.177 109.081 202.901 108.17C206.507 106.267 210.441 105.316 214.701 105.316C220.468 105.316 225.441 106.961 229.623 110.25ZM237.172 148V105.911H268.591V110.904H242.671V122.259H265.767V127.253H242.671V143.006H269.185V148H237.172ZM276.438 143.214L279.054 138.518C282.74 140.896 286.485 142.461 290.289 143.214C291.578 143.472 292.885 143.601 294.213 143.601C295.541 143.601 296.913 143.477 298.33 143.229C299.747 142.982 301 142.57 302.09 141.996C304.547 140.688 305.776 138.677 305.776 135.962C305.776 133.168 303.715 131.216 299.593 130.106C298.384 129.789 297.096 129.502 295.729 129.244L291.478 128.501C286.069 127.57 282.294 126.202 280.154 124.399C278.172 122.754 277.181 120.535 277.181 117.741C277.181 113.936 279.004 110.855 282.65 108.497C285.9 106.376 289.735 105.316 294.154 105.316C298.394 105.316 302.209 106.01 305.597 107.397C306.806 107.872 308.065 108.467 309.372 109.18L307.351 114.025C304.478 112.301 301.089 111.182 297.185 110.667C295.957 110.488 294.768 110.399 293.619 110.399C290.983 110.399 288.655 110.904 286.633 111.915C284.275 113.104 283.096 114.749 283.096 116.849C283.096 119.069 284.592 120.693 287.585 121.724C288.932 122.199 290.458 122.586 292.162 122.883L297.453 123.805C301.912 124.637 305.003 125.578 306.727 126.628C308.451 127.679 309.724 128.853 310.546 130.151C311.369 131.449 311.78 133.173 311.78 135.323C311.78 137.473 311.275 139.4 310.264 141.104C309.253 142.808 307.906 144.215 306.222 145.325C302.932 147.524 298.741 148.624 293.648 148.624C288.892 148.624 284.424 147.594 280.243 145.533C278.875 144.859 277.607 144.086 276.438 143.214Z" fill="#1B1717"/>
</svg>
