<svg width="427" height="163" viewBox="0 0 427 163" fill="none" xmlns="http://www.w3.org/2000/svg">
<path d="M426.519 134.456C423.475 135.389 420.249 135.556 417.125 134.944C414.001 134.331 411.077 132.958 408.611 130.945C406.144 128.932 404.213 126.342 402.987 123.404C401.761 120.467 401.278 117.272 401.582 114.103C405.105 78.0237 385.389 86.513 383.648 87.2134C379.255 80.4007 368.134 74.2248 368.134 74.2248L347.399 64.5046C345.147 63.4482 343.127 61.9549 341.457 60.1114C338.84 57.2298 337.192 53.6002 336.745 49.7333C336.533 47.993 336.3 46.0192 336.024 43.8545L337.148 45.234L343.855 53.5322C342.178 26.2817 337.361 29.0619 332.373 18.6626C333.753 17.3892 345.807 23.6925 345.807 23.6925C338.528 11.2982 326.707 5.03734 316.838 2.08732L316.477 1.9812L315.755 1.76897H315.395H315.034C310.934 0.818925 306.758 0.236518 302.555 0.0286752C302.06 -0.0095584 301.564 -0.0095584 301.069 0.0286752C297.734 0.478032 294.641 2.01543 292.27 4.40231C289.898 6.78918 288.381 9.89207 287.953 13.2295C284.929 18.4004 281.303 23.1949 277.151 27.5127C276.049 28.7142 275.268 30.174 274.88 31.7573C274.01 35.3652 276.111 36.108 278 36.8721L279.867 36.2566L279.528 37.6573C279.528 37.6573 281.862 39.9282 283.772 38.294C284.493 37.673 285.128 36.9594 285.661 36.1717C285.837 35.922 286.064 35.713 286.328 35.5592C286.592 35.4054 286.885 35.3102 287.189 35.2803C288.157 35.1333 289.096 34.8323 289.969 34.3889C293.874 32.585 298.459 30.6961 302.576 29.2529C302.51 31.5216 302.168 33.7737 301.557 35.9595C300.548 40.2913 298.018 44.117 294.426 46.7408C294.426 46.7408 287.041 50.6247 286.277 54.1901C280.66 51.0325 275.27 47.4867 270.147 43.5786C269.54 43.062 268.822 42.692 268.05 42.4969C267.277 42.3019 266.469 42.2871 265.69 42.4537C264.296 42.7225 262.956 43.2171 261.721 43.9181C261.721 43.9181 259.238 42.3688 254.272 45.6372C252.896 45.7545 251.528 45.9529 250.176 46.2315C245.969 47.1323 242.213 49.4837 239.564 52.8743C238.461 54.2538 235.914 56.2488 230.269 58.8592C230.269 58.8592 230.884 63.6769 241.305 63.6769L241.92 61.5546C241.92 61.5546 243.788 61.5546 241.92 57.8193C241.92 57.8193 248.605 55.4848 247.82 53.0016C250.239 52.6407 252.592 51.9256 254.803 50.8793C254.803 50.8793 256.925 53.5322 251.853 68.6007C251.853 68.6007 253.105 74.6068 256.564 76.8565C259.24 78.5357 261.819 80.3638 264.289 82.332L265.372 83.2234C266.284 82.5531 267.056 81.7095 267.642 80.7408C268.228 79.7721 268.618 78.6974 268.789 77.5781C268.933 76.3111 268.658 75.0317 268.007 73.9356C267.355 72.8395 266.363 71.9869 265.181 71.5082L264.777 71.3597C264.472 71.2549 264.144 71.2372 263.829 71.3084C263.514 71.3796 263.225 71.537 262.995 71.7629C262.928 71.8365 262.839 71.8858 262.742 71.9031C262.644 71.9204 262.544 71.9046 262.456 71.8584C262.368 71.8121 262.299 71.738 262.258 71.6477C262.217 71.5573 262.207 71.456 262.231 71.3597C262.302 70.9338 262.287 70.4978 262.184 70.0782C262.082 69.6587 261.896 69.2643 261.636 68.919L258.474 64.738C258.474 64.738 262.974 53.5535 261.594 51.6858C261.849 51.9193 277.83 66.7755 281.989 76.241C282.154 76.6143 282.394 76.95 282.693 77.2273C282.992 77.5047 283.345 77.718 283.73 77.854H284.027C287.295 78.831 290.368 80.3677 293.11 82.3957C296.888 85.1547 301.982 88.89 306.821 92.604C312.423 96.6364 334.411 99.7562 338.825 99.4379C339.954 103.366 341.764 107.066 344.173 110.368C347.364 113.937 350.207 117.803 352.663 121.913L353.511 123.335C353.511 123.335 355.846 135.135 337.658 145.874L334.517 147.614C334.107 147.841 333.765 148.173 333.526 148.576C333.287 148.979 333.16 149.438 333.158 149.907L330.633 152.687C330.633 152.687 337.467 158.757 341.818 152.687L343.218 150.968C343.186 150.75 343.186 150.528 343.218 150.31C343.216 149.782 343.41 149.272 343.763 148.879C344.116 148.487 344.603 148.24 345.128 148.187C345.776 148.1 346.397 147.875 346.95 147.527C347.503 147.18 347.974 146.717 348.333 146.171C350.583 142.754 355.591 135.454 357.629 134.859C357.629 134.859 365.078 129.893 364.611 125.224L368.495 130.657C368.495 130.657 374.204 137.576 357.417 155.403L354.912 157.844C354.912 157.844 358.096 165.06 363.571 161.537C364.887 160.688 366.203 159.818 367.561 159.032L366.585 155.403C366.585 155.403 372.803 140.123 377.197 137.64C381.59 135.156 379.319 129.405 376.581 126.604C373.843 123.802 370.214 116.183 371.615 112.617C373.016 109.052 380.635 105.911 382.099 103.449C382.375 103.003 382.672 102.579 382.969 102.154C384.038 100.464 384.72 98.5578 384.964 96.5728C386.359 103.722 387.218 110.965 387.532 118.242C387.802 123.011 389.261 127.637 391.777 131.697C403.874 151.031 426.54 134.668 426.922 134.392L426.519 134.456ZM287.147 21.3579L289.736 17.6439C289.736 17.6439 291.986 21.6975 287.147 21.3579Z" fill="#FF0B00"/>
<path d="M0 77L19.354 35.6021H22.423L40.345 77H34.439L30.522 67.9369H9.79401L5.554 77H0ZM12.103 63.0253H28.417L24.675 54.3422C24.207 53.2508 23.749 52.1203 23.301 50.9509L22.131 47.6472C21.39 45.5033 20.952 44.0415 20.815 43.2618H20.465C20.309 44.0415 19.958 45.1524 19.412 46.5947C19.412 46.5947 18.915 47.8616 17.921 50.3954C17.473 51.4869 16.986 52.5978 16.459 53.7283L12.103 63.0253ZM46.455 77V35.6021H52.01V56.2133L73.498 35.6021H80.486L57.974 57.0612L81.451 77H72.914L52.01 58.7276V77H46.455ZM123.726 48.3489C123.726 54.4884 120.899 58.7276 115.247 61.0665L123.112 77H116.826L109.722 62.5867C107.792 62.8791 105.775 63.0253 103.67 63.0253H92.911V77H87.502V35.6021H104.488C110.608 35.6021 115.179 36.4401 118.2 38.1163C121.884 40.1434 123.726 43.5542 123.726 48.3489ZM92.911 58.1136H104.401C108.767 58.1136 112.002 57.5094 114.107 56.301C116.699 54.8003 117.995 52.2665 117.995 48.6997C117.995 44.061 114.994 41.4297 108.991 40.806C107.256 40.6111 105.473 40.5137 103.641 40.5137H92.911V58.1136ZM138.037 71.7522C136 69.9103 134.392 67.7127 133.213 65.1595C132.033 62.6062 131.444 60.0335 131.444 57.4412C131.444 54.849 131.712 52.6027 132.248 50.7024C132.784 48.802 133.549 47.0479 134.543 45.4399C135.537 43.8319 136.726 42.3848 138.11 41.0984C139.493 39.812 141.033 38.7205 142.729 37.824C146.276 35.9529 150.145 35.0173 154.336 35.0173C158.351 35.0173 162.093 35.9139 165.562 37.707C168.934 39.4612 171.624 41.8975 173.631 45.016C175.678 48.2709 176.701 51.8864 176.701 55.8625C176.701 62.1579 174.479 67.3717 170.035 71.5037C167.248 74.0959 163.886 75.8793 159.949 76.8538C157.98 77.3411 155.7 77.5847 153.108 77.5847C150.515 77.5847 147.865 77.0731 145.155 76.0498C142.446 75.0266 140.073 73.594 138.037 71.7522ZM142.042 44.4313C140.531 45.8541 139.342 47.54 138.475 49.4891C137.608 51.4381 137.174 53.5821 137.174 55.921C137.174 58.2598 137.622 60.4525 138.519 62.499C139.416 64.5455 140.643 66.3289 142.203 67.8492C145.536 71.1041 149.58 72.7316 154.336 72.7316C158.955 72.7316 162.872 71.2113 166.088 68.1708C169.343 65.0913 170.971 61.2809 170.971 56.7396C170.971 53.6601 170.191 50.8047 168.632 48.1735C167.17 45.6787 165.114 43.6711 162.463 42.1509C159.851 40.6306 157.181 39.8705 154.452 39.8705C151.724 39.8705 149.351 40.2749 147.334 41.0838C145.316 41.8926 143.552 43.0085 142.042 44.4313ZM186.086 77V35.6021H190.822L217.485 68.2877V35.6021H222.309V77H217.777L190.91 44.0804V77H186.086Z" fill="white"/>
<path d="M1.28101 143.214L3.897 138.518C7.583 140.896 11.328 142.461 15.133 143.214C16.421 143.472 17.729 143.601 19.056 143.601C20.384 143.601 21.756 143.477 23.173 143.229C24.59 142.982 25.843 142.57 26.933 141.996C29.391 140.688 30.619 138.677 30.619 135.962C30.619 133.168 28.558 131.216 24.436 130.106C23.228 129.789 21.94 129.502 20.572 129.244L16.322 128.501C10.912 127.57 7.13701 126.202 4.99701 124.399C3.01501 122.754 2.02501 120.535 2.02501 117.741C2.02501 113.936 3.84801 110.855 7.49401 108.497C10.744 106.376 14.578 105.316 18.997 105.316C23.238 105.316 27.052 106.01 30.441 107.397C31.65 107.872 32.908 108.467 34.216 109.18L32.194 114.025C29.321 112.301 25.933 111.182 22.029 110.667C20.8 110.488 19.611 110.399 18.462 110.399C15.826 110.399 13.498 110.904 11.477 111.915C9.11901 113.104 7.94001 114.749 7.94001 116.849C7.94001 119.069 9.436 120.693 12.428 121.724C13.775 122.199 15.301 122.586 17.005 122.883L22.296 123.805C26.755 124.637 29.846 125.578 31.57 126.628C33.294 127.679 34.567 128.853 35.39 130.151C36.212 131.449 36.623 133.173 36.623 135.323C36.623 137.473 36.118 139.4 35.107 141.104C34.097 142.808 32.749 144.215 31.065 145.325C27.776 147.524 23.584 148.624 18.492 148.624C13.736 148.624 9.26701 147.594 5.08601 145.533C3.71901 144.859 2.45101 144.086 1.28101 143.214ZM46.105 148V105.911H77.524V110.904H51.604V122.259H74.7V127.253H51.604V143.006H78.118V148H46.105ZM123.656 118.87C123.656 125.112 120.782 129.422 115.036 131.8L123.031 148H116.641L109.418 133.346C107.456 133.643 105.405 133.792 103.265 133.792H92.326V148H86.827V105.911H104.097C110.319 105.911 114.966 106.763 118.038 108.467C121.783 110.528 123.656 113.996 123.656 118.87ZM92.326 128.798H104.008C108.447 128.798 111.736 128.184 113.876 126.955C116.512 125.429 117.83 122.853 117.83 119.227C117.83 114.511 114.778 111.836 108.675 111.202C106.911 111.003 105.098 110.904 103.235 110.904H92.326V128.798ZM147.494 148.594L128.174 105.911H134.327L145.265 130.076C145.76 131.186 146.216 132.286 146.632 133.376C147.584 135.813 148.317 137.805 148.832 139.35H149.099C149.377 138.459 149.684 137.557 150.021 136.645L151.091 133.732C151.507 132.662 151.973 131.572 152.488 130.463L163.605 105.911H169.431L150.11 148.594H147.494ZM176.386 148V105.911H181.885V148H176.386ZM229.622 110.25L226.858 114.65C223.568 111.717 219.338 110.25 214.166 110.25C209.469 110.25 205.486 111.796 202.216 114.887C198.907 117.998 197.253 121.872 197.253 126.509C197.253 131.305 198.957 135.367 202.365 138.696C205.754 142.006 209.865 143.66 214.701 143.66C218.208 143.66 221.706 142.769 225.193 140.985C226.224 140.47 227.115 139.905 227.868 139.291L230.009 143.393C227.096 145.89 223.34 147.505 218.743 148.238C217.257 148.476 215.731 148.594 214.166 148.594C211.054 148.594 208.122 148.074 205.367 147.034C202.613 145.994 200.2 144.537 198.129 142.665C196.059 140.792 194.424 138.558 193.225 135.962C192.026 133.366 191.427 130.75 191.427 128.115C191.427 125.479 191.699 123.195 192.244 121.263C192.789 119.331 193.567 117.548 194.577 115.913C195.588 114.278 196.797 112.807 198.204 111.499C199.611 110.191 201.176 109.081 202.9 108.17C206.507 106.267 210.44 105.316 214.701 105.316C220.467 105.316 225.441 106.961 229.622 110.25ZM237.172 148V105.911H268.59V110.904H242.671V122.259H265.767V127.253H242.671V143.006H269.185V148H237.172ZM276.438 143.214L279.053 138.518C282.739 140.896 286.484 142.461 290.289 143.214C291.577 143.472 292.885 143.601 294.213 143.601C295.54 143.601 296.913 143.477 298.329 143.229C299.746 142.982 301 142.57 302.09 141.996C304.547 140.688 305.775 138.677 305.775 135.962C305.775 133.168 303.714 131.216 299.593 130.106C298.384 129.789 297.096 129.502 295.729 129.244L291.478 128.501C286.068 127.57 282.293 126.202 280.153 124.399C278.171 122.754 277.181 120.535 277.181 117.741C277.181 113.936 279.004 110.855 282.65 108.497C285.9 106.376 289.734 105.316 294.153 105.316C298.394 105.316 302.208 106.01 305.597 107.397C306.806 107.872 308.064 108.467 309.372 109.18L307.351 114.025C304.477 112.301 301.089 111.182 297.185 110.667C295.956 110.488 294.767 110.399 293.618 110.399C290.983 110.399 288.654 110.904 286.633 111.915C284.275 113.104 283.096 114.749 283.096 116.849C283.096 119.069 284.592 120.693 287.584 121.724C288.932 122.199 290.457 122.586 292.162 122.883L297.453 123.805C301.911 124.637 305.002 125.578 306.726 126.628C308.45 127.679 309.724 128.853 310.546 130.151C311.368 131.449 311.78 133.173 311.78 135.323C311.78 137.473 311.274 139.4 310.264 141.104C309.253 142.808 307.906 144.215 306.221 145.325C302.932 147.524 298.741 148.624 293.648 148.624C288.892 148.624 284.423 147.594 280.242 145.533C278.875 144.859 277.607 144.086 276.438 143.214Z" fill="white"/>
</svg>
